<svg width="128" height="128" viewBox="0 0 128 128" xmlns="http://www.w3.org/2000/svg">
  <!-- Background circle with gradient -->
  <defs>
    <linearGradient id="bgGradient" x1="0%" y1="0%" x2="100%" y2="100%">
      <stop offset="0%" style="stop-color:#4facfe;stop-opacity:1" />
      <stop offset="100%" style="stop-color:#00f2fe;stop-opacity:1" />
    </linearGradient>
    <linearGradient id="docGradient" x1="0%" y1="0%" x2="100%" y2="100%">
      <stop offset="0%" style="stop-color:#ffffff;stop-opacity:1" />
      <stop offset="100%" style="stop-color:#f8f9fa;stop-opacity:1" />
    </linearGradient>
  </defs>
  
  <!-- Main circle background -->
  <circle cx="64" cy="64" r="60" fill="url(#bgGradient)" stroke="#ffffff" stroke-width="4"/>
  
  <!-- Document icon -->
  <rect x="32" y="28" width="44" height="56" rx="4" fill="url(#docGradient)" stroke="#e2e8f0" stroke-width="1"/>
  
  <!-- Document lines (representing text) -->
  <line x1="38" y1="38" x2="64" y2="38" stroke="#4a5568" stroke-width="2" stroke-linecap="round"/>
  <line x1="38" y1="44" x2="70" y2="44" stroke="#4a5568" stroke-width="2" stroke-linecap="round"/>
  <line x1="38" y1="50" x2="66" y2="50" stroke="#4a5568" stroke-width="2" stroke-linecap="round"/>
  
  <!-- AI brain/sparkle icon -->
  <g transform="translate(78, 72)">
    <!-- Brain outline -->
    <path d="M0 -8 Q6 -12 12 -8 Q18 -4 16 2 Q14 8 8 10 Q2 8 0 2 Q-2 -4 0 -8 Z" fill="#ffd700" stroke="#ff6b35" stroke-width="1"/>
    <!-- Sparkle -->
    <circle cx="6" cy="0" r="2" fill="#ffffff"/>
    <path d="M6 -4 L7 -1 L10 0 L7 1 L6 4 L5 1 L2 0 L5 -1 Z" fill="#ff6b35"/>
  </g>
  
  <!-- Arrow indicating summarization -->
  <g transform="translate(64, 90)">
    <path d="M-8 -4 Q0 -8 8 -4 L6 -2 L12 2 L0 8 L-12 2 L-6 -2 Z" fill="#ffffff" opacity="0.9"/>
  </g>
</svg>